# xmcd
#
# Track frame offsets:
#	150
#	25934
#	46169
#	73209
#	86762
#	111434
#	137660
#	160786
#	187150
#	207182
#	231899
#	245918
#	265378
#	286249
#	304172
#	321868
#	344627
#
# Disc length: 4793 seconds
#
# Revision: 3
# Processed by: cddbd v1.5.1PL2 Copyright (c) Steve Scherf et al.
# Submitted via: audiograbber 1.83.01
#
DISCID=0b12b711
DTITLE=George Michael - MTV history 2000 CD 2
DYEAR=1900
DGENRE=Pop
TTITLE0=Don't Let The Sun Go Down On Me (With Elton John)
TTITLE1=Outside
TTITLE2=Last Christmas
TTITLE3=Desafinado (With Astrud Gilberto)
TTITLE4=Older
TTITLE5=Freedom 90
TTITLE6=Somebody To Love (With Queen)
TTITLE7=Cowboys And Angels
TTITLE8=As (With Mary J. Blige)
TTITLE9=One More Try
TTITLE10=Faith
TTITLE11=Praying For Time
TTITLE12=These Are The Days Of Our Lives (Live With Lisa Stansfield)
TTITLE13=Killer/Papa Was A Rollin' Stone
TTITLE14=A Different Corner
TTITLE15=Star People (Remix '97)
TTITLE16=I Knew You Were Waiting (For Me) (With Aretha Franklin)
EXTD=
EXTT0=
EXTT1=
EXTT2=
EXTT3=
EXTT4=
EXTT5=
EXTT6=
EXTT7=
EXTT8=
EXTT9=
EXTT10=
EXTT11=
EXTT12=
EXTT13=
EXTT14=
EXTT15=
EXTT16=
PLAYORDER=
